<?xml version="1.0" encoding="utf-8"?>
<svg version="1.0" width="512.000000pt" height="512.000000pt" viewBox="0 0 512.000000 512.000000" preserveAspectRatio="xMidYMid meet" xmlns="http://www.w3.org/2000/svg">
  <g transform="matrix(0.089011, 0, 0, -0.089011, 28.266321, 483.860748)" fill="#000000" stroke="none" style="">
    <path d="M3054 5100 c-125 -33 -200 -76 -294 -170 -124 -124 -183 -257 -184 -415 l-1 -80 79 -128 78 -129 -6 -81 c-29 -336 -180 -663 -418 -905 -99 -101 -168 -154 -437 -337 -112 -76 -245 -172 -294 -214 -229 -192 -423 -480 -521 -772 -71 -214 -96 -402 -96 -736 l0 -192 -303 -3 -304 -3 -85 -42 c-339 -168 -358 -636 -34 -827 119 -71 -26 -67 2253 -64 l2052 3 27 21 c67 49 69 57 72 267 2 113 -1 218 -8 257 -25 142 -123 276 -248 339 l-62 31 0 481 c0 454 1 483 19 513 36 60 90 212 106 301 13 67 16 124 12 220 -5 158 -30 260 -94 397 -41 87 -45 103 -40 147 8 65 45 137 99 187 23 23 133 95 243 160 274 164 354 245 423 436 l27 73 0 352 c0 339 -1 352 -21 379 -50 68 -54 69 -302 74 -166 4 -234 9 -252 19 -14 7 -122 109 -240 227 -118 117 -228 218 -243 223 -18 7 -186 11 -480 10 -408 0 -459 -2 -523 -19z m1090 -479 c264 -261 303 -281 543 -281 l134 0 -3 -232 c-3 -214 -5 -237 -25 -280 -39 -86 -93 -131 -317 -265 -255 -153 -320 -211 -384 -343 -54 -109 -72 -183 -72 -290 0 -83 1 -87 55 -195 64 -127 85 -208 85 -341 0 -120 -27 -223 -90 -341 l-50 -93 0 -603 c0 -564 1 -605 18 -637 22 -41 90 -80 140 -80 40 0 78 -19 115 -57 37 -39 47 -80 47 -190 l0 -93 -335 0 -335 0 0 753 0 752 -25 37 c-35 51 -100 76 -157 59 -52 -16 -93 -57 -107 -107 -7 -26 -11 -206 -11 -527 l0 -489 -32 22 c-61 40 -186 97 -252 115 -57 15 -67 22 -72 44 -16 72 -58 184 -92 241 -53 91 -170 207 -267 264 -136 79 -360 136 -453 115 -94 -21 -142 -141 -89 -219 33 -49 71 -67 172 -79 124 -15 230 -67 309 -152 87 -94 122 -173 135 -310 13 -128 51 -165 182 -179 139 -14 239 -61 326 -152 41 -44 113 -160 113 -183 0 -3 -471 -5 -1046 -5 l-1046 0 5 583 c3 490 7 596 21 670 30 155 65 259 136 402 134 269 271 414 616 650 348 237 423 297 552 445 154 176 276 389 351 612 l37 111 58 -97 c31 -53 68 -103 80 -111 63 -41 138 -36 188 12 16 15 140 176 276 357 l246 328 3 57 c5 71 -19 114 -80 141 -52 24 -71 24 -122 1 -34 -15 -70 -58 -220 -259 -99 -133 -183 -240 -188 -239 -4 1 -83 129 -177 284 l-169 283 15 49 c30 103 110 189 206 222 48 17 92 18 452 19 l400 0 200 -199z m-3184 -4151 l0 -170 -260 0 c-290 0 -304 2 -357 63 -70 80 -48 207 44 256 35 19 58 20 306 21 l267 0 0 -170z"/>
  </g>
</svg>